# xmcd CD database file
#
# Track frame offsets:
#	150
#	10812
#	35189
#	65930
#	82592
#	134570
#	161794
#	196319
#	214363
#	229752
#	254663
#
# Disc length: 3538 seconds
#
# Revision: 0
# Processed by: cddbd v1.5.2PL0 Copyright (c) Steve Scherf et al.
# Submitted via: CDex 1.51
#
DISCID=a40dd00b
DTITLE=Max Schultz - Sudden eternity
DYEAR=2005
DGENRE=Jazz
TTITLE0=A little piece for you
TTITLE1=The apple
TTITLE2=Clean shirt
TTITLE3=Sudden eternity
TTITLE4=Harvest
TTITLE5=Hymn
TTITLE6=Lasse
TTITLE7=Irish dream
TTITLE8=Backseat driver
TTITLE9=E.T.
TTITLE10=The room upstairs
EXTD=YEAR: 2005
EXTT0=
EXTT1=
EXTT2=
EXTT3=
EXTT4=
EXTT5=
EXTT6=
EXTT7=
EXTT8=
EXTT9=
EXTT10=
PLAYORDER=
